<mxfile host="app.diagrams.net" modified="2024-03-26T03:05:56.688Z" agent="Mozilla/5.0 (Windows NT 10.0; Win64; x64) AppleWebKit/537.36 (KHTML, like Gecko) Chrome/122.0.0.0 Safari/537.36 Edg/122.0.0.0" etag="-RYNrrsI8irZs5RYnOyK" version="24.0.9" type="device">
  <diagram id="R2lEEEUBdFMjLlhIrx00" name="Page-1">
    <mxGraphModel dx="4930" dy="2295" grid="1" gridSize="10" guides="1" tooltips="1" connect="1" arrows="1" fold="1" page="1" pageScale="1" pageWidth="1100" pageHeight="850" math="0" shadow="0" extFonts="Permanent Marker^https://fonts.googleapis.com/css?family=Permanent+Marker">
      <root>
        <mxCell id="0" />
        <mxCell id="1" parent="0" />
        <mxCell id="TzKyVGq7RKnFsXAb4CgG-31" value="" style="group;movable=1;resizable=1;rotatable=1;deletable=1;editable=1;locked=0;connectable=1;" vertex="1" connectable="0" parent="1">
          <mxGeometry x="50" y="220" width="1000" height="455" as="geometry" />
        </mxCell>
        <mxCell id="TzKyVGq7RKnFsXAb4CgG-1" value="MAHASISWA" style="rounded=0;whiteSpace=wrap;html=1;movable=1;resizable=1;rotatable=1;deletable=1;editable=1;locked=0;connectable=1;" vertex="1" parent="TzKyVGq7RKnFsXAb4CgG-31">
          <mxGeometry x="160" y="215" width="120" height="60" as="geometry" />
        </mxCell>
        <mxCell id="TzKyVGq7RKnFsXAb4CgG-2" value="MATA KULIAH" style="rounded=0;whiteSpace=wrap;html=1;movable=1;resizable=1;rotatable=1;deletable=1;editable=1;locked=0;connectable=1;" vertex="1" parent="TzKyVGq7RKnFsXAb4CgG-31">
          <mxGeometry x="720" y="215" width="120" height="60" as="geometry" />
        </mxCell>
        <mxCell id="TzKyVGq7RKnFsXAb4CgG-6" value="" style="group;movable=1;resizable=1;rotatable=1;deletable=1;editable=1;locked=0;connectable=1;" vertex="1" connectable="0" parent="TzKyVGq7RKnFsXAb4CgG-31">
          <mxGeometry y="93" width="440" height="80" as="geometry" />
        </mxCell>
        <mxCell id="TzKyVGq7RKnFsXAb4CgG-3" value="&lt;u&gt;NIM&lt;/u&gt;" style="ellipse;whiteSpace=wrap;html=1;movable=1;resizable=1;rotatable=1;deletable=1;editable=1;locked=0;connectable=1;" vertex="1" parent="TzKyVGq7RKnFsXAb4CgG-6">
          <mxGeometry width="120" height="80" as="geometry" />
        </mxCell>
        <mxCell id="TzKyVGq7RKnFsXAb4CgG-4" value="PRODI" style="ellipse;whiteSpace=wrap;html=1;movable=1;resizable=1;rotatable=1;deletable=1;editable=1;locked=0;connectable=1;" vertex="1" parent="TzKyVGq7RKnFsXAb4CgG-6">
          <mxGeometry x="160" width="120" height="80" as="geometry" />
        </mxCell>
        <mxCell id="TzKyVGq7RKnFsXAb4CgG-5" value="NAMA" style="ellipse;whiteSpace=wrap;html=1;movable=1;resizable=1;rotatable=1;deletable=1;editable=1;locked=0;connectable=1;" vertex="1" parent="TzKyVGq7RKnFsXAb4CgG-6">
          <mxGeometry x="320" width="120" height="80" as="geometry" />
        </mxCell>
        <mxCell id="TzKyVGq7RKnFsXAb4CgG-7" value="" style="group;movable=1;resizable=1;rotatable=1;deletable=1;editable=1;locked=0;connectable=1;" vertex="1" connectable="0" parent="TzKyVGq7RKnFsXAb4CgG-31">
          <mxGeometry x="560" y="93" width="440" height="80" as="geometry" />
        </mxCell>
        <mxCell id="TzKyVGq7RKnFsXAb4CgG-8" value="&lt;u&gt;KODE_MATKUL&lt;/u&gt;" style="ellipse;whiteSpace=wrap;html=1;movable=1;resizable=1;rotatable=1;deletable=1;editable=1;locked=0;connectable=1;" vertex="1" parent="TzKyVGq7RKnFsXAb4CgG-7">
          <mxGeometry width="120" height="80" as="geometry" />
        </mxCell>
        <mxCell id="TzKyVGq7RKnFsXAb4CgG-9" value="NAMA MATKUL" style="ellipse;whiteSpace=wrap;html=1;movable=1;resizable=1;rotatable=1;deletable=1;editable=1;locked=0;connectable=1;" vertex="1" parent="TzKyVGq7RKnFsXAb4CgG-7">
          <mxGeometry x="160" width="120" height="80" as="geometry" />
        </mxCell>
        <mxCell id="TzKyVGq7RKnFsXAb4CgG-10" value="DOSEN PENGAMPU" style="ellipse;whiteSpace=wrap;html=1;movable=1;resizable=1;rotatable=1;deletable=1;editable=1;locked=0;connectable=1;" vertex="1" parent="TzKyVGq7RKnFsXAb4CgG-7">
          <mxGeometry x="320" width="120" height="80" as="geometry" />
        </mxCell>
        <mxCell id="TzKyVGq7RKnFsXAb4CgG-11" value="" style="endArrow=none;html=1;rounded=0;exitX=0.653;exitY=0.976;exitDx=0;exitDy=0;exitPerimeter=0;entryX=0;entryY=0;entryDx=0;entryDy=0;movable=1;resizable=1;rotatable=1;deletable=1;editable=1;locked=0;connectable=1;" edge="1" parent="TzKyVGq7RKnFsXAb4CgG-31" source="TzKyVGq7RKnFsXAb4CgG-3" target="TzKyVGq7RKnFsXAb4CgG-1">
          <mxGeometry width="50" height="50" relative="1" as="geometry">
            <mxPoint x="370" y="395" as="sourcePoint" />
            <mxPoint x="420" y="345" as="targetPoint" />
          </mxGeometry>
        </mxCell>
        <mxCell id="TzKyVGq7RKnFsXAb4CgG-12" value="" style="endArrow=none;html=1;rounded=0;entryX=0.269;entryY=0.937;entryDx=0;entryDy=0;entryPerimeter=0;exitX=1;exitY=0;exitDx=0;exitDy=0;movable=1;resizable=1;rotatable=1;deletable=1;editable=1;locked=0;connectable=1;" edge="1" parent="TzKyVGq7RKnFsXAb4CgG-31" source="TzKyVGq7RKnFsXAb4CgG-1" target="TzKyVGq7RKnFsXAb4CgG-5">
          <mxGeometry width="50" height="50" relative="1" as="geometry">
            <mxPoint x="390" y="375" as="sourcePoint" />
            <mxPoint x="440" y="325" as="targetPoint" />
          </mxGeometry>
        </mxCell>
        <mxCell id="TzKyVGq7RKnFsXAb4CgG-13" value="" style="endArrow=none;html=1;rounded=0;exitX=0.5;exitY=1;exitDx=0;exitDy=0;entryX=0.5;entryY=0;entryDx=0;entryDy=0;movable=1;resizable=1;rotatable=1;deletable=1;editable=1;locked=0;connectable=1;" edge="1" parent="TzKyVGq7RKnFsXAb4CgG-31" source="TzKyVGq7RKnFsXAb4CgG-4" target="TzKyVGq7RKnFsXAb4CgG-1">
          <mxGeometry width="50" height="50" relative="1" as="geometry">
            <mxPoint x="190" y="205" as="sourcePoint" />
            <mxPoint x="460" y="375" as="targetPoint" />
          </mxGeometry>
        </mxCell>
        <mxCell id="TzKyVGq7RKnFsXAb4CgG-14" value="" style="endArrow=none;html=1;rounded=0;entryX=0.653;entryY=1.001;entryDx=0;entryDy=0;entryPerimeter=0;exitX=0;exitY=0;exitDx=0;exitDy=0;movable=1;resizable=1;rotatable=1;deletable=1;editable=1;locked=0;connectable=1;" edge="1" parent="TzKyVGq7RKnFsXAb4CgG-31" source="TzKyVGq7RKnFsXAb4CgG-2" target="TzKyVGq7RKnFsXAb4CgG-8">
          <mxGeometry width="50" height="50" relative="1" as="geometry">
            <mxPoint x="460" y="345" as="sourcePoint" />
            <mxPoint x="510" y="295" as="targetPoint" />
          </mxGeometry>
        </mxCell>
        <mxCell id="TzKyVGq7RKnFsXAb4CgG-15" value="" style="endArrow=none;html=1;rounded=0;entryX=0.5;entryY=1;entryDx=0;entryDy=0;exitX=0.5;exitY=0;exitDx=0;exitDy=0;movable=1;resizable=1;rotatable=1;deletable=1;editable=1;locked=0;connectable=1;" edge="1" parent="TzKyVGq7RKnFsXAb4CgG-31" source="TzKyVGq7RKnFsXAb4CgG-2" target="TzKyVGq7RKnFsXAb4CgG-9">
          <mxGeometry width="50" height="50" relative="1" as="geometry">
            <mxPoint x="650" y="445" as="sourcePoint" />
            <mxPoint x="700" y="395" as="targetPoint" />
          </mxGeometry>
        </mxCell>
        <mxCell id="TzKyVGq7RKnFsXAb4CgG-16" value="" style="endArrow=none;html=1;rounded=0;entryX=0;entryY=1;entryDx=0;entryDy=0;exitX=1;exitY=0;exitDx=0;exitDy=0;movable=1;resizable=1;rotatable=1;deletable=1;editable=1;locked=0;connectable=1;" edge="1" parent="TzKyVGq7RKnFsXAb4CgG-31" source="TzKyVGq7RKnFsXAb4CgG-2" target="TzKyVGq7RKnFsXAb4CgG-10">
          <mxGeometry width="50" height="50" relative="1" as="geometry">
            <mxPoint x="370" y="395" as="sourcePoint" />
            <mxPoint x="420" y="345" as="targetPoint" />
          </mxGeometry>
        </mxCell>
        <mxCell id="TzKyVGq7RKnFsXAb4CgG-17" value="MENGIKUTI" style="rhombus;whiteSpace=wrap;html=1;movable=1;resizable=1;rotatable=1;deletable=1;editable=1;locked=0;connectable=1;" vertex="1" parent="TzKyVGq7RKnFsXAb4CgG-31">
          <mxGeometry x="350" y="175" width="290" height="140" as="geometry" />
        </mxCell>
        <mxCell id="TzKyVGq7RKnFsXAb4CgG-18" value="" style="endArrow=none;html=1;rounded=0;entryX=1;entryY=0.5;entryDx=0;entryDy=0;movable=1;resizable=1;rotatable=1;deletable=1;editable=1;locked=0;connectable=1;" edge="1" parent="TzKyVGq7RKnFsXAb4CgG-31" source="TzKyVGq7RKnFsXAb4CgG-17" target="TzKyVGq7RKnFsXAb4CgG-1">
          <mxGeometry width="50" height="50" relative="1" as="geometry">
            <mxPoint x="200" y="455" as="sourcePoint" />
            <mxPoint x="250" y="405" as="targetPoint" />
          </mxGeometry>
        </mxCell>
        <mxCell id="TzKyVGq7RKnFsXAb4CgG-19" value="" style="endArrow=none;html=1;rounded=0;entryX=1;entryY=0.5;entryDx=0;entryDy=0;exitX=0;exitY=0.5;exitDx=0;exitDy=0;movable=1;resizable=1;rotatable=1;deletable=1;editable=1;locked=0;connectable=1;" edge="1" parent="TzKyVGq7RKnFsXAb4CgG-31" source="TzKyVGq7RKnFsXAb4CgG-2" target="TzKyVGq7RKnFsXAb4CgG-17">
          <mxGeometry width="50" height="50" relative="1" as="geometry">
            <mxPoint x="370" y="395" as="sourcePoint" />
            <mxPoint x="420" y="345" as="targetPoint" />
          </mxGeometry>
        </mxCell>
        <mxCell id="TzKyVGq7RKnFsXAb4CgG-20" value="&lt;u&gt;NIM&lt;/u&gt;" style="ellipse;whiteSpace=wrap;html=1;movable=1;resizable=1;rotatable=1;deletable=1;editable=1;locked=0;connectable=1;" vertex="1" parent="TzKyVGq7RKnFsXAb4CgG-31">
          <mxGeometry x="360" width="120" height="80" as="geometry" />
        </mxCell>
        <mxCell id="TzKyVGq7RKnFsXAb4CgG-21" value="&lt;u&gt;KODE_MATKUL&lt;/u&gt;" style="ellipse;whiteSpace=wrap;html=1;movable=1;resizable=1;rotatable=1;deletable=1;editable=1;locked=0;connectable=1;" vertex="1" parent="TzKyVGq7RKnFsXAb4CgG-31">
          <mxGeometry x="530" width="120" height="80" as="geometry" />
        </mxCell>
        <mxCell id="TzKyVGq7RKnFsXAb4CgG-22" value="" style="endArrow=none;html=1;rounded=0;entryX=0.5;entryY=1;entryDx=0;entryDy=0;exitX=0.5;exitY=0;exitDx=0;exitDy=0;movable=1;resizable=1;rotatable=1;deletable=1;editable=1;locked=0;connectable=1;" edge="1" parent="TzKyVGq7RKnFsXAb4CgG-31" source="TzKyVGq7RKnFsXAb4CgG-17" target="TzKyVGq7RKnFsXAb4CgG-20">
          <mxGeometry width="50" height="50" relative="1" as="geometry">
            <mxPoint x="370" y="125" as="sourcePoint" />
            <mxPoint x="420" y="75" as="targetPoint" />
          </mxGeometry>
        </mxCell>
        <mxCell id="TzKyVGq7RKnFsXAb4CgG-23" value="" style="endArrow=none;html=1;rounded=0;entryX=0.5;entryY=1;entryDx=0;entryDy=0;exitX=0.5;exitY=0;exitDx=0;exitDy=0;movable=1;resizable=1;rotatable=1;deletable=1;editable=1;locked=0;connectable=1;" edge="1" parent="TzKyVGq7RKnFsXAb4CgG-31" source="TzKyVGq7RKnFsXAb4CgG-17" target="TzKyVGq7RKnFsXAb4CgG-21">
          <mxGeometry width="50" height="50" relative="1" as="geometry">
            <mxPoint x="370" y="125" as="sourcePoint" />
            <mxPoint x="420" y="75" as="targetPoint" />
          </mxGeometry>
        </mxCell>
        <mxCell id="TzKyVGq7RKnFsXAb4CgG-24" value="" style="group;movable=1;resizable=1;rotatable=1;deletable=1;editable=1;locked=0;connectable=1;" vertex="1" connectable="0" parent="TzKyVGq7RKnFsXAb4CgG-31">
          <mxGeometry x="275" y="375" width="440" height="80" as="geometry" />
        </mxCell>
        <mxCell id="TzKyVGq7RKnFsXAb4CgG-25" value="SEMESTER" style="ellipse;whiteSpace=wrap;html=1;movable=1;resizable=1;rotatable=1;deletable=1;editable=1;locked=0;connectable=1;" vertex="1" parent="TzKyVGq7RKnFsXAb4CgG-24">
          <mxGeometry width="120" height="80" as="geometry" />
        </mxCell>
        <mxCell id="TzKyVGq7RKnFsXAb4CgG-26" value="TAHUN" style="ellipse;whiteSpace=wrap;html=1;movable=1;resizable=1;rotatable=1;deletable=1;editable=1;locked=0;connectable=1;" vertex="1" parent="TzKyVGq7RKnFsXAb4CgG-24">
          <mxGeometry x="160" width="120" height="80" as="geometry" />
        </mxCell>
        <mxCell id="TzKyVGq7RKnFsXAb4CgG-27" value="NILAI" style="ellipse;whiteSpace=wrap;html=1;movable=1;resizable=1;rotatable=1;deletable=1;editable=1;locked=0;connectable=1;" vertex="1" parent="TzKyVGq7RKnFsXAb4CgG-24">
          <mxGeometry x="320" width="120" height="80" as="geometry" />
        </mxCell>
        <mxCell id="TzKyVGq7RKnFsXAb4CgG-28" value="" style="endArrow=none;html=1;rounded=0;entryX=0.5;entryY=0;entryDx=0;entryDy=0;exitX=0;exitY=1;exitDx=0;exitDy=0;movable=1;resizable=1;rotatable=1;deletable=1;editable=1;locked=0;connectable=1;" edge="1" parent="TzKyVGq7RKnFsXAb4CgG-31" source="TzKyVGq7RKnFsXAb4CgG-17" target="TzKyVGq7RKnFsXAb4CgG-25">
          <mxGeometry width="50" height="50" relative="1" as="geometry">
            <mxPoint x="195" y="415" as="sourcePoint" />
            <mxPoint x="245" y="365" as="targetPoint" />
          </mxGeometry>
        </mxCell>
        <mxCell id="TzKyVGq7RKnFsXAb4CgG-29" value="" style="endArrow=none;html=1;rounded=0;entryX=1;entryY=1;entryDx=0;entryDy=0;exitX=0.5;exitY=0;exitDx=0;exitDy=0;movable=1;resizable=1;rotatable=1;deletable=1;editable=1;locked=0;connectable=1;" edge="1" parent="TzKyVGq7RKnFsXAb4CgG-31" source="TzKyVGq7RKnFsXAb4CgG-27" target="TzKyVGq7RKnFsXAb4CgG-17">
          <mxGeometry width="50" height="50" relative="1" as="geometry">
            <mxPoint x="940" y="425" as="sourcePoint" />
            <mxPoint x="990" y="375" as="targetPoint" />
          </mxGeometry>
        </mxCell>
        <mxCell id="TzKyVGq7RKnFsXAb4CgG-30" value="" style="endArrow=none;html=1;rounded=0;entryX=0.5;entryY=1;entryDx=0;entryDy=0;movable=1;resizable=1;rotatable=1;deletable=1;editable=1;locked=0;connectable=1;" edge="1" parent="TzKyVGq7RKnFsXAb4CgG-31" source="TzKyVGq7RKnFsXAb4CgG-26" target="TzKyVGq7RKnFsXAb4CgG-17">
          <mxGeometry width="50" height="50" relative="1" as="geometry">
            <mxPoint x="370" y="465" as="sourcePoint" />
            <mxPoint x="420" y="415" as="targetPoint" />
          </mxGeometry>
        </mxCell>
        <mxCell id="TzKyVGq7RKnFsXAb4CgG-36" value="Mahasiswa" style="shape=table;startSize=30;container=1;collapsible=1;childLayout=tableLayout;fixedRows=1;rowLines=0;fontStyle=1;align=center;resizeLast=1;html=1;" vertex="1" parent="1">
          <mxGeometry x="260" y="1070" width="180" height="120" as="geometry" />
        </mxCell>
        <mxCell id="TzKyVGq7RKnFsXAb4CgG-37" value="" style="shape=tableRow;horizontal=0;startSize=0;swimlaneHead=0;swimlaneBody=0;fillColor=none;collapsible=0;dropTarget=0;points=[[0,0.5],[1,0.5]];portConstraint=eastwest;top=0;left=0;right=0;bottom=1;" vertex="1" parent="TzKyVGq7RKnFsXAb4CgG-36">
          <mxGeometry y="30" width="180" height="30" as="geometry" />
        </mxCell>
        <mxCell id="TzKyVGq7RKnFsXAb4CgG-38" value="PK" style="shape=partialRectangle;connectable=0;fillColor=none;top=0;left=0;bottom=0;right=0;fontStyle=1;overflow=hidden;whiteSpace=wrap;html=1;" vertex="1" parent="TzKyVGq7RKnFsXAb4CgG-37">
          <mxGeometry width="30" height="30" as="geometry">
            <mxRectangle width="30" height="30" as="alternateBounds" />
          </mxGeometry>
        </mxCell>
        <mxCell id="TzKyVGq7RKnFsXAb4CgG-39" value="NIM" style="shape=partialRectangle;connectable=0;fillColor=none;top=0;left=0;bottom=0;right=0;align=left;spacingLeft=6;fontStyle=5;overflow=hidden;whiteSpace=wrap;html=1;" vertex="1" parent="TzKyVGq7RKnFsXAb4CgG-37">
          <mxGeometry x="30" width="150" height="30" as="geometry">
            <mxRectangle width="150" height="30" as="alternateBounds" />
          </mxGeometry>
        </mxCell>
        <mxCell id="TzKyVGq7RKnFsXAb4CgG-40" value="" style="shape=tableRow;horizontal=0;startSize=0;swimlaneHead=0;swimlaneBody=0;fillColor=none;collapsible=0;dropTarget=0;points=[[0,0.5],[1,0.5]];portConstraint=eastwest;top=0;left=0;right=0;bottom=0;" vertex="1" parent="TzKyVGq7RKnFsXAb4CgG-36">
          <mxGeometry y="60" width="180" height="30" as="geometry" />
        </mxCell>
        <mxCell id="TzKyVGq7RKnFsXAb4CgG-41" value="" style="shape=partialRectangle;connectable=0;fillColor=none;top=0;left=0;bottom=0;right=0;editable=1;overflow=hidden;whiteSpace=wrap;html=1;" vertex="1" parent="TzKyVGq7RKnFsXAb4CgG-40">
          <mxGeometry width="30" height="30" as="geometry">
            <mxRectangle width="30" height="30" as="alternateBounds" />
          </mxGeometry>
        </mxCell>
        <mxCell id="TzKyVGq7RKnFsXAb4CgG-42" value="PRODI" style="shape=partialRectangle;connectable=0;fillColor=none;top=0;left=0;bottom=0;right=0;align=left;spacingLeft=6;overflow=hidden;whiteSpace=wrap;html=1;" vertex="1" parent="TzKyVGq7RKnFsXAb4CgG-40">
          <mxGeometry x="30" width="150" height="30" as="geometry">
            <mxRectangle width="150" height="30" as="alternateBounds" />
          </mxGeometry>
        </mxCell>
        <mxCell id="TzKyVGq7RKnFsXAb4CgG-43" value="" style="shape=tableRow;horizontal=0;startSize=0;swimlaneHead=0;swimlaneBody=0;fillColor=none;collapsible=0;dropTarget=0;points=[[0,0.5],[1,0.5]];portConstraint=eastwest;top=0;left=0;right=0;bottom=0;" vertex="1" parent="TzKyVGq7RKnFsXAb4CgG-36">
          <mxGeometry y="90" width="180" height="30" as="geometry" />
        </mxCell>
        <mxCell id="TzKyVGq7RKnFsXAb4CgG-44" value="" style="shape=partialRectangle;connectable=0;fillColor=none;top=0;left=0;bottom=0;right=0;editable=1;overflow=hidden;whiteSpace=wrap;html=1;" vertex="1" parent="TzKyVGq7RKnFsXAb4CgG-43">
          <mxGeometry width="30" height="30" as="geometry">
            <mxRectangle width="30" height="30" as="alternateBounds" />
          </mxGeometry>
        </mxCell>
        <mxCell id="TzKyVGq7RKnFsXAb4CgG-45" value="NAMA" style="shape=partialRectangle;connectable=0;fillColor=none;top=0;left=0;bottom=0;right=0;align=left;spacingLeft=6;overflow=hidden;whiteSpace=wrap;html=1;" vertex="1" parent="TzKyVGq7RKnFsXAb4CgG-43">
          <mxGeometry x="30" width="150" height="30" as="geometry">
            <mxRectangle width="150" height="30" as="alternateBounds" />
          </mxGeometry>
        </mxCell>
        <mxCell id="TzKyVGq7RKnFsXAb4CgG-49" value="MATA KULIAH" style="shape=table;startSize=30;container=1;collapsible=1;childLayout=tableLayout;fixedRows=1;rowLines=0;fontStyle=1;align=center;resizeLast=1;html=1;" vertex="1" parent="1">
          <mxGeometry x="720" y="1060" width="180" height="120" as="geometry" />
        </mxCell>
        <mxCell id="TzKyVGq7RKnFsXAb4CgG-50" value="" style="shape=tableRow;horizontal=0;startSize=0;swimlaneHead=0;swimlaneBody=0;fillColor=none;collapsible=0;dropTarget=0;points=[[0,0.5],[1,0.5]];portConstraint=eastwest;top=0;left=0;right=0;bottom=1;" vertex="1" parent="TzKyVGq7RKnFsXAb4CgG-49">
          <mxGeometry y="30" width="180" height="30" as="geometry" />
        </mxCell>
        <mxCell id="TzKyVGq7RKnFsXAb4CgG-51" value="PK" style="shape=partialRectangle;connectable=0;fillColor=none;top=0;left=0;bottom=0;right=0;fontStyle=1;overflow=hidden;whiteSpace=wrap;html=1;" vertex="1" parent="TzKyVGq7RKnFsXAb4CgG-50">
          <mxGeometry width="30" height="30" as="geometry">
            <mxRectangle width="30" height="30" as="alternateBounds" />
          </mxGeometry>
        </mxCell>
        <mxCell id="TzKyVGq7RKnFsXAb4CgG-52" value="KODE_MATKUL" style="shape=partialRectangle;connectable=0;fillColor=none;top=0;left=0;bottom=0;right=0;align=left;spacingLeft=6;fontStyle=5;overflow=hidden;whiteSpace=wrap;html=1;" vertex="1" parent="TzKyVGq7RKnFsXAb4CgG-50">
          <mxGeometry x="30" width="150" height="30" as="geometry">
            <mxRectangle width="150" height="30" as="alternateBounds" />
          </mxGeometry>
        </mxCell>
        <mxCell id="TzKyVGq7RKnFsXAb4CgG-53" value="" style="shape=tableRow;horizontal=0;startSize=0;swimlaneHead=0;swimlaneBody=0;fillColor=none;collapsible=0;dropTarget=0;points=[[0,0.5],[1,0.5]];portConstraint=eastwest;top=0;left=0;right=0;bottom=0;" vertex="1" parent="TzKyVGq7RKnFsXAb4CgG-49">
          <mxGeometry y="60" width="180" height="30" as="geometry" />
        </mxCell>
        <mxCell id="TzKyVGq7RKnFsXAb4CgG-54" value="" style="shape=partialRectangle;connectable=0;fillColor=none;top=0;left=0;bottom=0;right=0;editable=1;overflow=hidden;whiteSpace=wrap;html=1;" vertex="1" parent="TzKyVGq7RKnFsXAb4CgG-53">
          <mxGeometry width="30" height="30" as="geometry">
            <mxRectangle width="30" height="30" as="alternateBounds" />
          </mxGeometry>
        </mxCell>
        <mxCell id="TzKyVGq7RKnFsXAb4CgG-55" value="NAMA_MATKUL" style="shape=partialRectangle;connectable=0;fillColor=none;top=0;left=0;bottom=0;right=0;align=left;spacingLeft=6;overflow=hidden;whiteSpace=wrap;html=1;" vertex="1" parent="TzKyVGq7RKnFsXAb4CgG-53">
          <mxGeometry x="30" width="150" height="30" as="geometry">
            <mxRectangle width="150" height="30" as="alternateBounds" />
          </mxGeometry>
        </mxCell>
        <mxCell id="TzKyVGq7RKnFsXAb4CgG-56" value="" style="shape=tableRow;horizontal=0;startSize=0;swimlaneHead=0;swimlaneBody=0;fillColor=none;collapsible=0;dropTarget=0;points=[[0,0.5],[1,0.5]];portConstraint=eastwest;top=0;left=0;right=0;bottom=0;" vertex="1" parent="TzKyVGq7RKnFsXAb4CgG-49">
          <mxGeometry y="90" width="180" height="30" as="geometry" />
        </mxCell>
        <mxCell id="TzKyVGq7RKnFsXAb4CgG-57" value="" style="shape=partialRectangle;connectable=0;fillColor=none;top=0;left=0;bottom=0;right=0;editable=1;overflow=hidden;whiteSpace=wrap;html=1;" vertex="1" parent="TzKyVGq7RKnFsXAb4CgG-56">
          <mxGeometry width="30" height="30" as="geometry">
            <mxRectangle width="30" height="30" as="alternateBounds" />
          </mxGeometry>
        </mxCell>
        <mxCell id="TzKyVGq7RKnFsXAb4CgG-58" value="DOSEN_PENGAMPU" style="shape=partialRectangle;connectable=0;fillColor=none;top=0;left=0;bottom=0;right=0;align=left;spacingLeft=6;overflow=hidden;whiteSpace=wrap;html=1;" vertex="1" parent="TzKyVGq7RKnFsXAb4CgG-56">
          <mxGeometry x="30" width="150" height="30" as="geometry">
            <mxRectangle width="150" height="30" as="alternateBounds" />
          </mxGeometry>
        </mxCell>
        <mxCell id="TzKyVGq7RKnFsXAb4CgG-59" value="MENGIKUTI" style="shape=table;startSize=30;container=1;collapsible=1;childLayout=tableLayout;fixedRows=1;rowLines=0;fontStyle=1;align=center;resizeLast=1;html=1;" vertex="1" parent="1">
          <mxGeometry x="480" y="1275" width="180" height="210" as="geometry" />
        </mxCell>
        <mxCell id="TzKyVGq7RKnFsXAb4CgG-60" value="" style="shape=tableRow;horizontal=0;startSize=0;swimlaneHead=0;swimlaneBody=0;fillColor=none;collapsible=0;dropTarget=0;points=[[0,0.5],[1,0.5]];portConstraint=eastwest;top=0;left=0;right=0;bottom=1;" vertex="1" parent="TzKyVGq7RKnFsXAb4CgG-59">
          <mxGeometry y="30" width="180" height="30" as="geometry" />
        </mxCell>
        <mxCell id="TzKyVGq7RKnFsXAb4CgG-61" value="PK" style="shape=partialRectangle;connectable=0;fillColor=none;top=0;left=0;bottom=0;right=0;fontStyle=1;overflow=hidden;whiteSpace=wrap;html=1;" vertex="1" parent="TzKyVGq7RKnFsXAb4CgG-60">
          <mxGeometry width="30" height="30" as="geometry">
            <mxRectangle width="30" height="30" as="alternateBounds" />
          </mxGeometry>
        </mxCell>
        <mxCell id="TzKyVGq7RKnFsXAb4CgG-62" value="NIM+KODE_MATKUL" style="shape=partialRectangle;connectable=0;fillColor=none;top=0;left=0;bottom=0;right=0;align=left;spacingLeft=6;fontStyle=5;overflow=hidden;whiteSpace=wrap;html=1;" vertex="1" parent="TzKyVGq7RKnFsXAb4CgG-60">
          <mxGeometry x="30" width="150" height="30" as="geometry">
            <mxRectangle width="150" height="30" as="alternateBounds" />
          </mxGeometry>
        </mxCell>
        <mxCell id="TzKyVGq7RKnFsXAb4CgG-63" value="" style="shape=tableRow;horizontal=0;startSize=0;swimlaneHead=0;swimlaneBody=0;fillColor=none;collapsible=0;dropTarget=0;points=[[0,0.5],[1,0.5]];portConstraint=eastwest;top=0;left=0;right=0;bottom=0;" vertex="1" parent="TzKyVGq7RKnFsXAb4CgG-59">
          <mxGeometry y="60" width="180" height="30" as="geometry" />
        </mxCell>
        <mxCell id="TzKyVGq7RKnFsXAb4CgG-64" value="" style="shape=partialRectangle;connectable=0;fillColor=none;top=0;left=0;bottom=0;right=0;editable=1;overflow=hidden;whiteSpace=wrap;html=1;" vertex="1" parent="TzKyVGq7RKnFsXAb4CgG-63">
          <mxGeometry width="30" height="30" as="geometry">
            <mxRectangle width="30" height="30" as="alternateBounds" />
          </mxGeometry>
        </mxCell>
        <mxCell id="TzKyVGq7RKnFsXAb4CgG-65" value="SEMESTER" style="shape=partialRectangle;connectable=0;fillColor=none;top=0;left=0;bottom=0;right=0;align=left;spacingLeft=6;overflow=hidden;whiteSpace=wrap;html=1;" vertex="1" parent="TzKyVGq7RKnFsXAb4CgG-63">
          <mxGeometry x="30" width="150" height="30" as="geometry">
            <mxRectangle width="150" height="30" as="alternateBounds" />
          </mxGeometry>
        </mxCell>
        <mxCell id="TzKyVGq7RKnFsXAb4CgG-66" value="" style="shape=tableRow;horizontal=0;startSize=0;swimlaneHead=0;swimlaneBody=0;fillColor=none;collapsible=0;dropTarget=0;points=[[0,0.5],[1,0.5]];portConstraint=eastwest;top=0;left=0;right=0;bottom=0;" vertex="1" parent="TzKyVGq7RKnFsXAb4CgG-59">
          <mxGeometry y="90" width="180" height="30" as="geometry" />
        </mxCell>
        <mxCell id="TzKyVGq7RKnFsXAb4CgG-67" value="" style="shape=partialRectangle;connectable=0;fillColor=none;top=0;left=0;bottom=0;right=0;editable=1;overflow=hidden;whiteSpace=wrap;html=1;" vertex="1" parent="TzKyVGq7RKnFsXAb4CgG-66">
          <mxGeometry width="30" height="30" as="geometry">
            <mxRectangle width="30" height="30" as="alternateBounds" />
          </mxGeometry>
        </mxCell>
        <mxCell id="TzKyVGq7RKnFsXAb4CgG-68" value="TAHUN" style="shape=partialRectangle;connectable=0;fillColor=none;top=0;left=0;bottom=0;right=0;align=left;spacingLeft=6;overflow=hidden;whiteSpace=wrap;html=1;" vertex="1" parent="TzKyVGq7RKnFsXAb4CgG-66">
          <mxGeometry x="30" width="150" height="30" as="geometry">
            <mxRectangle width="150" height="30" as="alternateBounds" />
          </mxGeometry>
        </mxCell>
        <mxCell id="TzKyVGq7RKnFsXAb4CgG-69" value="" style="shape=tableRow;horizontal=0;startSize=0;swimlaneHead=0;swimlaneBody=0;fillColor=none;collapsible=0;dropTarget=0;points=[[0,0.5],[1,0.5]];portConstraint=eastwest;top=0;left=0;right=0;bottom=0;" vertex="1" parent="TzKyVGq7RKnFsXAb4CgG-59">
          <mxGeometry y="120" width="180" height="30" as="geometry" />
        </mxCell>
        <mxCell id="TzKyVGq7RKnFsXAb4CgG-70" value="" style="shape=partialRectangle;connectable=0;fillColor=none;top=0;left=0;bottom=0;right=0;editable=1;overflow=hidden;whiteSpace=wrap;html=1;" vertex="1" parent="TzKyVGq7RKnFsXAb4CgG-69">
          <mxGeometry width="30" height="30" as="geometry">
            <mxRectangle width="30" height="30" as="alternateBounds" />
          </mxGeometry>
        </mxCell>
        <mxCell id="TzKyVGq7RKnFsXAb4CgG-71" value="NILAI" style="shape=partialRectangle;connectable=0;fillColor=none;top=0;left=0;bottom=0;right=0;align=left;spacingLeft=6;overflow=hidden;whiteSpace=wrap;html=1;" vertex="1" parent="TzKyVGq7RKnFsXAb4CgG-69">
          <mxGeometry x="30" width="150" height="30" as="geometry">
            <mxRectangle width="150" height="30" as="alternateBounds" />
          </mxGeometry>
        </mxCell>
        <mxCell id="TzKyVGq7RKnFsXAb4CgG-75" value="" style="shape=tableRow;horizontal=0;startSize=0;swimlaneHead=0;swimlaneBody=0;fillColor=none;collapsible=0;dropTarget=0;points=[[0,0.5],[1,0.5]];portConstraint=eastwest;top=0;left=0;right=0;bottom=0;" vertex="1" parent="TzKyVGq7RKnFsXAb4CgG-59">
          <mxGeometry y="150" width="180" height="30" as="geometry" />
        </mxCell>
        <mxCell id="TzKyVGq7RKnFsXAb4CgG-76" value="FK" style="shape=partialRectangle;connectable=0;fillColor=none;top=0;left=0;bottom=0;right=0;editable=1;overflow=hidden;" vertex="1" parent="TzKyVGq7RKnFsXAb4CgG-75">
          <mxGeometry width="30" height="30" as="geometry">
            <mxRectangle width="30" height="30" as="alternateBounds" />
          </mxGeometry>
        </mxCell>
        <mxCell id="TzKyVGq7RKnFsXAb4CgG-77" value="NIM" style="shape=partialRectangle;connectable=0;fillColor=none;top=0;left=0;bottom=0;right=0;align=left;spacingLeft=6;overflow=hidden;" vertex="1" parent="TzKyVGq7RKnFsXAb4CgG-75">
          <mxGeometry x="30" width="150" height="30" as="geometry">
            <mxRectangle width="150" height="30" as="alternateBounds" />
          </mxGeometry>
        </mxCell>
        <mxCell id="TzKyVGq7RKnFsXAb4CgG-86" value="" style="shape=tableRow;horizontal=0;startSize=0;swimlaneHead=0;swimlaneBody=0;fillColor=none;collapsible=0;dropTarget=0;points=[[0,0.5],[1,0.5]];portConstraint=eastwest;top=0;left=0;right=0;bottom=0;" vertex="1" parent="TzKyVGq7RKnFsXAb4CgG-59">
          <mxGeometry y="180" width="180" height="30" as="geometry" />
        </mxCell>
        <mxCell id="TzKyVGq7RKnFsXAb4CgG-87" value="FK" style="shape=partialRectangle;connectable=0;fillColor=none;top=0;left=0;bottom=0;right=0;editable=1;overflow=hidden;" vertex="1" parent="TzKyVGq7RKnFsXAb4CgG-86">
          <mxGeometry width="30" height="30" as="geometry">
            <mxRectangle width="30" height="30" as="alternateBounds" />
          </mxGeometry>
        </mxCell>
        <mxCell id="TzKyVGq7RKnFsXAb4CgG-88" value="KODE_MATKUL" style="shape=partialRectangle;connectable=0;fillColor=none;top=0;left=0;bottom=0;right=0;align=left;spacingLeft=6;overflow=hidden;" vertex="1" parent="TzKyVGq7RKnFsXAb4CgG-86">
          <mxGeometry x="30" width="150" height="30" as="geometry">
            <mxRectangle width="150" height="30" as="alternateBounds" />
          </mxGeometry>
        </mxCell>
        <mxCell id="TzKyVGq7RKnFsXAb4CgG-89" value="" style="edgeStyle=entityRelationEdgeStyle;fontSize=12;html=1;endArrow=ERmandOne;startArrow=ERmandOne;rounded=0;exitX=0;exitY=0.5;exitDx=0;exitDy=0;" edge="1" parent="1" source="TzKyVGq7RKnFsXAb4CgG-75" target="TzKyVGq7RKnFsXAb4CgG-37">
          <mxGeometry width="100" height="100" relative="1" as="geometry">
            <mxPoint x="620" y="1130" as="sourcePoint" />
            <mxPoint x="720" y="1030" as="targetPoint" />
            <Array as="points">
              <mxPoint x="440" y="1190" />
              <mxPoint x="450" y="1190" />
            </Array>
          </mxGeometry>
        </mxCell>
        <mxCell id="TzKyVGq7RKnFsXAb4CgG-90" value="" style="edgeStyle=entityRelationEdgeStyle;fontSize=12;html=1;endArrow=ERmandOne;startArrow=ERmandOne;rounded=0;entryX=0;entryY=0.5;entryDx=0;entryDy=0;exitX=1;exitY=0.5;exitDx=0;exitDy=0;" edge="1" parent="1" source="TzKyVGq7RKnFsXAb4CgG-86" target="TzKyVGq7RKnFsXAb4CgG-50">
          <mxGeometry width="100" height="100" relative="1" as="geometry">
            <mxPoint x="520" y="1490" as="sourcePoint" />
            <mxPoint x="620" y="1390" as="targetPoint" />
          </mxGeometry>
        </mxCell>
        <mxCell id="TzKyVGq7RKnFsXAb4CgG-91" value="&lt;font style=&quot;font-size: 48px;&quot;&gt;OBJECT ORIENTED&lt;/font&gt;" style="text;html=1;align=center;verticalAlign=middle;whiteSpace=wrap;rounded=0;" vertex="1" parent="1">
          <mxGeometry x="210" y="940" width="60" height="30" as="geometry" />
        </mxCell>
        <mxCell id="TzKyVGq7RKnFsXAb4CgG-92" value="&lt;font style=&quot;font-size: 48px;&quot;&gt;DIAGRAM ENTITY RELATIONSHIP&lt;/font&gt;" style="text;html=1;align=left;verticalAlign=middle;whiteSpace=wrap;rounded=0;" vertex="1" parent="1">
          <mxGeometry x="110" y="80" width="60" height="30" as="geometry" />
        </mxCell>
        <mxCell id="TzKyVGq7RKnFsXAb4CgG-93" value="&lt;font style=&quot;font-size: 24px;&quot;&gt;A_2215016135_TAUFAN ALI_PRAKTIKUM1&lt;/font&gt;" style="text;html=1;align=right;verticalAlign=middle;whiteSpace=wrap;rounded=0;" vertex="1" parent="1">
          <mxGeometry x="590" width="500" height="30" as="geometry" />
        </mxCell>
      </root>
    </mxGraphModel>
  </diagram>
</mxfile>
